<?xml version="1.0" encoding="UTF-8"?>
<svg version="1.1" xmlns="http://www.w3.org/2000/svg" width="512" height="512">
<path d="M0 0 C0.97163086 0.46744629 0.97163086 0.46744629 1.96289062 0.94433594 C15.42813895 7.49668386 27.77582054 16.05900527 39.125 25.8125 C40.09695313 26.64394531 41.06890625 27.47539063 42.0703125 28.33203125 C44 31 44 31 43.90625 34.69921875 C43 38 43 38 41.375 40 C37.66569594 41.56181224 35.86529589 41.20394462 32 40 C29.83675832 38.29168897 27.8941626 36.40915429 25.89453125 34.51171875 C-2.87128692 9.55028679 -42.66246763 -3.51865931 -80.35058594 -3.20581055 C-82.62967111 -3.18746239 -84.90834821 -3.18530254 -87.1875 -3.18554688 C-95.50435039 -3.16495225 -103.72026072 -2.87213254 -112 -2 C-111.50970949 14.53128119 -111.50970949 14.53128119 -103 28 C-92.36190805 35.02998637 -78.87296931 34.94576581 -66.56567383 35.28979492 C-50.71836426 35.75893658 -34.54120406 36.98573596 -22.125 48.125 C-9.79755886 61.80876107 -10.67096673 79.34994828 -10.54370117 96.5390625 C-10.40968523 111.76091663 -9.22744026 126.45177573 2 138 C6.40757564 141.16587153 11.12893926 143.62387281 16 146 C17 147 17 147 17.25 150.875 C17.20006601 153.40801531 17.13648888 154.74307975 15.9375 157 C12.70546965 158.6681447 10.61786563 158.45941151 7 158 C-4.82173738 153.89412813 -13.57762807 145.08346464 -19 134 C-23.29649094 124.75258572 -25.28127047 115.90009707 -25.30859375 105.72265625 C-25.33374741 103.97460595 -25.35914553 102.22655915 -25.38476562 100.47851562 C-25.41345233 97.76897042 -25.43752089 95.05948571 -25.45629883 92.34985352 C-25.22268961 74.53263475 -25.22268961 74.53263475 -33 59 C-43.71095217 49.92292189 -58.64507266 50.42510479 -71.92578125 49.99145508 C-87.146168 49.46182676 -103.36371478 47.98392548 -115.01953125 37.1171875 C-124.57193653 26.86092078 -126.12880601 15.54935917 -127 2 C-130.31507638 3.07555207 -133.62652736 4.16188693 -136.9375 5.25 C-137.86369141 5.55035156 -138.78988281 5.85070312 -139.74414062 6.16015625 C-145.66799247 8.11398809 -151.35514203 10.34462252 -157 13 C-156.867146 13.59329102 -156.73429199 14.18658203 -156.59741211 14.79785156 C-155.20417667 21.10809208 -154.43659032 27.41542726 -153.87353516 33.84545898 C-153.38293127 38.68245403 -152.51439113 42.7428576 -150 47 C-144.56705054 50.31277406 -138.92073619 50.65675043 -132.6875 51.3125 C-123.98083049 52.39866963 -116.70639455 53.82040817 -110.5625 60.58203125 C-107.0088898 65.45590635 -106.51621214 70.09778814 -107 76 C-109.17743326 83.91526414 -114.38351 89.25987657 -120 95 C-120.79921875 95.83789062 -121.5984375 96.67578125 -122.421875 97.5390625 C-128.24663456 103.53077377 -134.45096969 108.82190004 -141 114 C-141.96679688 114.79535156 -142.93359375 115.59070313 -143.9296875 116.41015625 C-152.65097299 123.519722 -161.9096818 129.79261911 -171.29345703 135.98632812 C-181.34557923 142.00640909 -181.34557923 142.00640909 -186.81176758 151.67919922 C-187.26998032 156.34438723 -186.06578658 159.84130946 -184.32421875 164.12109375 C-184.03899857 164.86529068 -183.75377838 165.60948761 -183.45991516 166.37623596 C-182.55226112 168.73678607 -181.62137943 171.08721662 -180.6875 173.4375 C-179.76836832 175.78553184 -178.85449213 178.13541242 -177.94721985 180.48805237 C-177.38401239 181.94480397 -176.81355661 183.39878378 -176.23429871 184.84922791 C-171.13250748 197.91094113 -170.59606898 208.84400126 -176 222 C-180.56530537 230.36145604 -187.51944175 237.1091618 -194 244 C-196.73987265 246.94385641 -199.42010133 249.91469976 -202 253 C-202.49371094 253.58394531 -202.98742187 254.16789062 -203.49609375 254.76953125 C-208.16272017 261.12555952 -209.15583569 269.31754448 -210 277 C-210.08314453 277.68537842 -210.16628906 278.37075684 -210.25195312 279.0769043 C-210.52247263 282.98507732 -210.14113512 284.80018782 -207.8671875 288.01953125 C-206.89217709 288.97393931 -205.89302226 289.90411091 -204.875 290.8125 C-204.33657471 291.31894043 -203.79814941 291.82538086 -203.2434082 292.34716797 C-197.15264419 297.97358228 -190.6844846 303.10242072 -184 308 C-183.43506836 308.41991211 -182.87013672 308.83982422 -182.28808594 309.27246094 C-158.61534974 326.67049597 -130.04252953 336.67426816 -101 340 C-100.94392578 338.07414063 -100.94392578 338.07414063 -100.88671875 336.109375 C-100.0396337 311.7091367 -97.83664827 281.44933129 -79.953125 262.6796875 C-73.76925755 257.36156149 -66.62579459 253.40577146 -58.4375 252.6875 C-54.01742076 251.80348415 -52.91717999 250.41523511 -50 247 C-49.46246094 246.43925781 -48.92492187 245.87851562 -48.37109375 245.30078125 C-41.72457525 238.2379881 -36.31689984 230.23574375 -30.69335938 222.36181641 C-27.99192615 218.59398697 -25.2581604 214.85145997 -22.5 211.125 C-22.02014648 210.46556396 -21.54029297 209.80612793 -21.04589844 209.12670898 C-14.64305593 200.51571823 -14.64305593 200.51571823 -9.4375 199.5 C-6.0750877 200.1897256 -4.9513833 201.18133524 -3 204 C-2.56515139 207.98377438 -2.48152252 210.2031694 -4.6953125 213.60546875 C-5.49710937 214.45753906 -6.29890625 215.30960938 -7.125 216.1875 C-11.91864432 221.50762914 -16.01513604 227.15872762 -20.0625 233.0625 C-25.08312069 240.33876187 -30.201668 247.3173664 -36 254 C-36.70898438 254.84175781 -37.41796875 255.68351562 -38.1484375 256.55078125 C-43.57991101 262.88076989 -47.37828749 265.94813699 -55.8125 267.25 C-63.83563039 268.88480713 -67.75749535 271.73599031 -72.63671875 278.15234375 C-84.69865213 296.4123487 -85.39036375 319.87295071 -86 341 C-69.53203515 340.72080036 -53.5667798 339.07916332 -37.609375 334.85546875 C-33.64221428 333.91520014 -30.94688958 334.0527465 -27 335 C-24.42009199 337.57990801 -24.68401162 339.50244461 -24.5390625 343.02734375 C-25 345 -25 345 -26.44140625 346.59375 C-30.2187853 348.66986673 -34.13863246 349.56241231 -38.3125 350.5625 C-39.52776367 350.87477539 -39.52776367 350.87477539 -40.76757812 351.19335938 C-54.5839755 354.59153267 -68.28365193 355.41009834 -82.4375 355.375 C-83.26771667 355.37445618 -84.09793335 355.37391235 -84.95330811 355.37335205 C-133.85623295 355.2267078 -177.46844338 336.19538394 -213 303 C-213.86367187 302.20207031 -214.72734375 301.40414063 -215.6171875 300.58203125 C-227.35680227 289.33582058 -236.98303522 276.11123136 -245 262 C-245.65355469 260.87851562 -246.30710937 259.75703125 -246.98046875 258.6015625 C-271.24761603 215.90218434 -275.45764385 164.00935784 -263 117 C-254.60378693 87.19372145 -239.05343809 61.49499515 -218 39 C-216.69289063 37.59427734 -216.69289063 37.59427734 -215.359375 36.16015625 C-160.92176966 -21.04433869 -69.94895459 -34.12064029 0 0 Z M-179.75 25.25 C-180.88985352 26.05884644 -180.88985352 26.05884644 -182.05273438 26.8840332 C-189.4086962 32.17746814 -196.30925198 37.892786 -203 44 C-203.81855469 44.74636719 -204.63710937 45.49273437 -205.48046875 46.26171875 C-212.0627537 52.56440221 -217.59275313 59.69002353 -223 67 C-223.4242627 67.56928223 -223.84852539 68.13856445 -224.28564453 68.72509766 C-236.41475326 85.23376733 -244.79047375 104.24846562 -250 124 C-250.19674316 124.72429199 -250.39348633 125.44858398 -250.59619141 126.19482422 C-262.88069605 172.32122456 -253.43967046 219.24408476 -230 260 C-228.43764014 262.51559714 -226.8939428 264.7161278 -225 267 C-224.34 267 -223.68 267 -223 267 C-222.67128906 265.76636719 -222.67128906 265.76636719 -222.3359375 264.5078125 C-218.45730102 250.85375074 -211.63219222 242.05839541 -202 232 C-190.51819262 220.18223816 -190.51819262 220.18223816 -185.7421875 204.875 C-186.07348929 199.89543377 -187.47985476 195.68637841 -189.125 191 C-189.43977295 190.07880371 -189.7545459 189.15760742 -190.07885742 188.20849609 C-192.41479234 181.45476315 -194.97395752 174.81549852 -197.73828125 168.2265625 C-200.99333044 159.90250482 -202.83865425 151.94322772 -199.5 143.375 C-193.8038911 132.23551059 -182.00074189 125.85251861 -172 119 C-161.11976195 111.53844222 -150.82122434 103.81684749 -141 95 C-140.4544043 94.51611816 -139.90880859 94.03223633 -139.34667969 93.53369141 C-127.25187391 84.07502744 -127.25187391 84.07502744 -121 71 C-123.37289463 67.38907339 -126.19931629 66.32430711 -130.3359375 65.41796875 C-133.14029139 64.97798947 -135.94774701 64.6916649 -138.77148438 64.4074707 C-147.49487428 63.49524063 -154.68711254 61.85889931 -161.375 55.875 C-166.43991905 46.91398936 -167.70703168 38.02860296 -168.60546875 27.94140625 C-168.88980291 25.10087984 -169.26385958 22.71581749 -170 20 C-173.75280835 20 -176.77840742 23.13691787 -179.75 25.25 Z " fill="#7D64F6" transform="translate(282,24)"/>
<path d="M0 0 C1.76299877 1.35829317 3.51396221 2.73241327 5.25 4.125 C5.97058594 4.68058594 6.69117188 5.23617187 7.43359375 5.80859375 C21.18527832 16.98686366 28.80368356 33.87189503 31.25 51.125 C31.32510394 53.70528112 31.35406758 56.25509484 31.32746887 58.83378601 C31.32217565 59.96914511 31.32217565 59.96914511 31.3167755 61.12744075 C31.30846927 62.7796463 31.2978108 64.43184131 31.28508186 66.08401871 C31.26437158 68.77346793 31.24964683 71.46289329 31.23648071 74.15238953 C31.22222244 77.05146952 31.20756902 79.9505422 31.19112074 82.84961069 C31.15070377 90.03889563 31.1300119 97.22804455 31.1212616 104.41743469 C31.11997798 105.4620166 31.11869437 106.50659851 31.11737186 107.58283442 C31.11249355 111.89051572 31.10831807 116.19819733 31.10458529 120.50587976 C31.09328565 132.72327532 31.0624715 144.93989047 30.97241211 157.15698242 C30.90094206 166.86951539 30.87195712 176.58113002 30.89257544 186.29391891 C30.901897 191.42971643 30.8900201 196.56346229 30.82660866 201.6989193 C30.76740608 206.53359122 30.76483348 211.36506807 30.80459976 216.1999073 C30.80929712 217.96756159 30.79370347 219.73541249 30.75561714 221.50266266 C30.36663642 231.73961633 30.36663642 231.73961633 34.87048912 240.54194069 C37.7751452 243.38893401 40.97389904 245.72388166 44.25 248.125 C66.16040078 269.53564277 75.75464332 300.33549037 76.2890625 330.31640625 C76.1878136 356.99549268 65.81399792 384.13484672 48.25 404.125 C47.58742188 404.93066406 46.92484375 405.73632812 46.2421875 406.56640625 C26.95490545 429.30547124 -2.10342108 442.29318751 -31.47607422 444.85351562 C-60.74923313 446.79256347 -91.93196733 438.48167011 -114.39453125 419.0625 C-117.60754595 416.17620197 -120.68114432 413.16347097 -123.75 410.125 C-124.76126953 409.20460938 -124.76126953 409.20460938 -125.79296875 408.265625 C-145.2104517 390.31445083 -155.91827811 360.71911418 -157.03125 334.80078125 C-157.89142583 300.70436728 -146.40064603 271.84376113 -123.96484375 246.35546875 C-121.75 244.125 -121.75 244.125 -119.81774712 242.97261715 C-115.89513771 240.36521025 -114.01435512 238.35857928 -113.01045609 233.67401314 C-112.6300937 229.17079844 -112.71709794 224.66701996 -112.78173828 220.15258789 C-112.77740315 218.41397926 -112.76952356 216.6753764 -112.75837708 214.9367981 C-112.73791223 210.22296477 -112.76624508 205.5105283 -112.80278254 200.79683995 C-112.83219346 195.84884307 -112.81468053 190.90102275 -112.80172729 185.95298767 C-112.78390604 176.56914144 -112.80501078 167.18582842 -112.8415488 157.80205196 C-112.89361866 144.07658663 -112.89533091 130.35109741 -112.8875103 116.62554836 C-112.88665639 115.10829642 -112.88665639 115.10829642 -112.88578522 113.56039292 C-112.88460198 111.54113605 -112.88329045 109.52187925 -112.88184726 107.50262254 C-112.87906117 101.62869703 -112.8901384 95.75501107 -112.91360784 89.8811332 C-112.92691642 86.20493397 -112.93231661 82.52874753 -112.93626976 78.85252762 C-112.93993504 77.16443287 -112.94704772 75.47634099 -112.95812035 73.78827858 C-113.12285526 48.07089962 -109.14419435 27.00515087 -90.875 7.75 C-66.85482517 -15.12106153 -27.41901159 -19.49880192 0 0 Z M-84.43652344 21.59960938 C-95.12358971 34.01090864 -99.02127092 49.02602418 -98.80728149 65.09207153 C-98.80163598 65.8526533 -98.79599047 66.61323507 -98.79017389 67.39686477 C-98.77732303 69.0510728 -98.76208338 70.70526364 -98.74470711 72.35943031 C-98.70657904 75.99902625 -98.68027386 79.6386855 -98.6529882 83.27837634 C-98.63817224 85.23687469 -98.62274205 87.19536847 -98.60673738 89.15385747 C-98.50556708 101.7352389 -98.48169268 114.31688334 -98.45361447 126.89860368 C-98.42577473 139.13745647 -98.37388609 151.37502524 -98.24609375 163.61328125 C-98.14456186 173.35045247 -98.09638801 183.0862472 -98.11030996 192.82396114 C-98.11572195 197.96981698 -98.09491977 203.11244908 -98.00941849 208.25766373 C-97.92954961 213.10353325 -97.92111205 217.94449323 -97.96527672 222.79076958 C-97.96914159 224.55884682 -97.94779114 226.32720706 -97.89800072 228.09458733 C-97.69332518 235.80225204 -97.67412596 242.23870508 -103.0370903 248.21438217 C-106.16431598 251.29403745 -109.50204317 254.04039787 -112.97823215 256.71457839 C-130.82298468 270.91995216 -140.18845928 296.15922165 -142.75 318.125 C-143.43092783 330.44360354 -142.98248339 342.17460685 -139.75 354.125 C-139.48316406 355.12273437 -139.21632813 356.12046875 -138.94140625 357.1484375 C-131.90805548 380.46790271 -115.9075669 402.68458706 -94.75 415.125 C-93.85571289 415.65601318 -93.85571289 415.65601318 -92.94335938 416.19775391 C-68.46931987 430.53031826 -41.14723957 434.69468851 -13.52758789 427.70458984 C0.94973157 423.68997048 15.25976165 416.43060055 26.25 406.125 C26.74661133 405.67318359 27.24322266 405.22136719 27.75488281 404.75585938 C48.51238679 385.75408909 60.41179385 360.6883351 62.12426758 332.51831055 C63.33448492 303.35377703 51.88798527 277.58284595 32.40942383 256.34521484 C28.87366014 252.60626054 25.10924581 249.41933597 20.9296875 246.4296875 C19.25 245.125 19.25 245.125 18.25 243.125 C18.15108324 240.65222453 18.11274466 238.20742662 18.11869812 235.73432922 C18.11552455 234.57770343 18.11552455 234.57770343 18.11228687 233.39771146 C18.10626889 230.79938798 18.10728833 228.20111283 18.1081543 225.6027832 C18.10512374 223.74507565 18.10160258 221.88736885 18.09762573 220.02966309 C18.08972431 216.01964039 18.08458696 212.00962665 18.08133507 207.99959755 C18.07542703 201.64815677 18.05888545 195.29677211 18.03999329 188.94535828 C18.0336552 186.77028755 18.02732959 184.59521679 18.02101612 182.42014599 C18.01785031 181.33051914 18.0146845 180.24089228 18.01142275 179.11824644 C17.96938069 164.32908532 17.93641112 149.53994925 17.92407227 134.75073242 C17.91566842 124.78051303 17.89308614 114.81043158 17.8547166 104.84028119 C17.83502284 99.56754572 17.82252883 94.29501616 17.82755089 89.02224159 C17.83222782 84.0505735 17.81822694 79.07929402 17.79053879 74.10770416 C17.7836761 72.29343886 17.7834467 70.47913294 17.79073906 68.66486931 C17.85623491 50.52184689 14.92257078 33.76182082 2.08984375 19.83984375 C-5.62681313 12.6474608 -13.7426576 7.46545932 -23.75 4.125 C-24.47316406 3.88007812 -25.19632812 3.63515625 -25.94140625 3.3828125 C-47.09915331 -2.47872653 -69.85497001 5.87420264 -84.43652344 21.59960938 Z " fill="#6381F5" transform="translate(423.75,61.875)"/>
<path d="M0 0 C6.34561443 6.8633219 7.83594412 13.94159221 7.75997925 22.99104309 C7.75574438 24.23832822 7.75574438 24.23832822 7.75142395 25.51081103 C7.74101236 28.3012732 7.7236356 31.09165147 7.70654297 33.88208008 C7.69811663 35.88113677 7.69028296 37.88019603 7.68299866 39.8792572 C7.67124014 43.07480307 7.65903746 46.27034219 7.64502978 49.46587908 C7.61049027 57.38918945 7.59430933 65.31238186 7.58938599 73.23576355 C7.5886533 74.38508057 7.58792061 75.53439759 7.58716571 76.7185424 C7.58450095 81.45988965 7.58245414 86.20123697 7.58069015 90.94258463 C7.57490336 104.4106336 7.55106869 117.87810268 7.47363281 131.34594727 C7.41225354 142.04209433 7.38955925 152.73752892 7.41244519 163.43383902 C7.42309364 169.09471757 7.41404345 174.75403775 7.35811996 180.41468239 C7.30594987 185.73991773 7.30508218 191.06269654 7.34348869 196.38802528 C7.34848264 198.34116633 7.33467768 200.29446045 7.30060387 202.24731064 C6.72943844 212.6215757 6.72943844 212.6215757 11.09306717 221.4637661 C13.89446239 223.25629101 16.61348004 224.536597 19.67578125 225.8125 C32.83866216 235.50654947 41.02094871 250.86122235 44.25390625 266.6328125 C46.62796687 284.52619532 43.81071453 301.64008509 33.67578125 316.8125 C30.89066446 320.39190969 27.89995108 323.62664798 24.67578125 326.8125 C23.98871094 327.52148438 23.30164063 328.23046875 22.59375 328.9609375 C9.96700696 341.18943447 -7.49546181 346.25215152 -24.7421875 346.015625 C-43.62028314 344.9451114 -59.94240624 336.86356684 -72.94921875 323.1875 C-85.04180565 308.55060995 -90.25598935 291.15343738 -89.10546875 272.2109375 C-86.97553743 253.73787934 -78.05420614 237.34101412 -63.59765625 225.59765625 C-59.86530667 222.9057404 -56.82564653 220.83420953 -52.32421875 219.8125 C-52.32698413 218.2802072 -52.32698413 218.2802072 -52.32980537 216.716959 C-52.37423227 191.84476008 -52.40708349 166.97256631 -52.42784309 142.10033607 C-52.43814947 130.07224745 -52.45219765 118.04418506 -52.47509766 106.01611328 C-52.49505102 95.530734 -52.50793983 85.04537372 -52.51239574 74.55997598 C-52.51499981 69.00962177 -52.5211073 63.45932191 -52.53567886 57.90898514 C-52.54929349 52.68059176 -52.55343354 47.45227493 -52.55043411 42.22386551 C-52.55098254 40.30911848 -52.55493678 38.3943688 -52.5626297 36.47963715 C-52.66569979 9.49329319 -52.66569979 9.49329319 -43.46484375 -0.1328125 C-30.64028332 -12.01292856 -13.03829675 -11.56389955 0 0 Z M-32.87109375 9.140625 C-37.60444897 14.43084554 -38.5805843 19.84319258 -38.51953125 26.7421875 C-38.51453613 27.90476074 -38.50954102 29.06733398 -38.50439453 30.26513672 C-38.48618652 31.7245166 -38.46797852 33.18389648 -38.44921875 34.6875 C-38.40796875 39.34875 -38.36671875 44.01 -38.32421875 48.8125 C-27.76421875 48.8125 -17.20421875 48.8125 -6.32421875 48.8125 C-6.22109375 43.6975 -6.11796875 38.5825 -6.01171875 33.3125 C-5.96619873 31.71470703 -5.92067871 30.11691406 -5.8737793 28.47070312 C-5.79981137 20.89257006 -5.75097086 14.57411021 -11.32421875 8.8125 C-17.86851258 3.47373398 -26.49811531 3.66887583 -32.87109375 9.140625 Z M-38.32421875 62.8125 C-38.65421875 117.5925 -38.98421875 172.3725 -39.32421875 228.8125 C-42.29421875 229.8025 -42.29421875 229.8025 -45.32421875 230.8125 C-59.51140965 239.20296137 -68.40621022 249.58885009 -73.46484375 265.37109375 C-77.11679897 280.26111116 -74.62318524 293.98284546 -67.0390625 307.1484375 C-58.46410393 320.46989933 -46.06907832 327.84996634 -30.8203125 331.39453125 C-17.25751657 333.66560975 -3.62554475 330.52557116 7.67578125 322.8125 C18.97000813 313.97353983 27.7372946 302.800874 30.390625 288.375 C32.11603799 272.86991884 29.39220753 258.71830913 19.70703125 246.28515625 C13.6193973 239.15790875 6.76221685 234.04940576 -1.38671875 229.5 C-4.32421875 227.8125 -4.32421875 227.8125 -5.32421875 225.8125 C-5.43055649 223.67161724 -5.47091299 221.52737167 -5.48243713 219.38388062 C-5.4898441 218.38288879 -5.4898441 218.38288879 -5.4974007 217.3616749 C-5.51281496 215.11530538 -5.5211469 212.86896452 -5.52954102 210.62255859 C-5.53911646 209.0163701 -5.54912634 207.41018414 -5.55953979 205.80400085 C-5.58663112 201.43444013 -5.60761775 197.06486856 -5.62754178 192.69527006 C-5.64937531 188.1321638 -5.67677685 183.56909114 -5.70359802 179.00601196 C-5.75356059 170.36105931 -5.79848617 161.71608805 -5.84162039 153.07109892 C-5.89096234 143.23083067 -5.94589173 133.39059612 -6.00129998 123.55036044 C-6.11517474 103.30443682 -6.2212641 83.0584823 -6.32421875 62.8125 C-16.88421875 62.8125 -27.44421875 62.8125 -38.32421875 62.8125 Z " fill="#6381F5" transform="translate(405.32421875,115.1875)"/>
<path d="M0 0 C2.89550722 3.16696102 4.26403488 6.6934046 4.75 10.9375 C4.36358998 18.53689715 -0.3228226 25.52822711 -4 32 C-4.3904248 32.6914209 -4.78084961 33.3828418 -5.18310547 34.09521484 C-13.44773199 48.51500094 -24.02110864 63.36328791 -40.22265625 69.3046875 C-46.89929668 70.97619523 -54.1288589 71.23600298 -60.5 68.375 C-66.79419992 64.5852291 -70.17063442 59.00718122 -72 52 C-72.44168601 48.15807788 -72.47585453 44.36429583 -72.4375 40.5 C-72.43065186 39.44280762 -72.42380371 38.38561523 -72.41674805 37.29638672 C-72.16414261 24.85533232 -70.24795293 9.87025192 -61.453125 0.3203125 C-50.69478506 -9.10654972 -11.10988499 -8.78642347 0 0 Z M-52 11 C-53.88240539 13.84947447 -53.88240539 13.84947447 -54.875 17.3125 C-55.26429688 18.44300781 -55.65359375 19.57351562 -56.0546875 20.73828125 C-57.89580241 27.09088847 -58.21380247 32.92109864 -58.25 39.5 C-58.270625 40.43714844 -58.29125 41.37429687 -58.3125 42.33984375 C-58.35998404 49.16877757 -58.35998404 49.16877757 -55 55 C-51.96789088 56.51605456 -49.27727404 56.51396364 -46 56 C-33.08526015 51.63115236 -25.82552354 41.07945874 -19.12158203 29.87451172 C-18.35940591 28.60067884 -17.58923644 27.33160175 -16.81201172 26.06689453 C-15.65136896 24.17817329 -14.51006418 22.27918145 -13.375 20.375 C-12.36566406 18.68503906 -12.36566406 18.68503906 -11.3359375 16.9609375 C-9.76963094 14.17049884 -9.76963094 14.17049884 -10.2890625 11.6015625 C-10.52367187 11.07304687 -10.75828125 10.54453125 -11 10 C-17.39497277 8.50106144 -23.84151965 8.8157153 -30.375 8.8125 C-31.67695313 8.80025391 -32.97890625 8.78800781 -34.3203125 8.77539062 C-35.58359375 8.77345703 -36.846875 8.77152344 -38.1484375 8.76953125 C-39.29489746 8.76542236 -40.44135742 8.76131348 -41.62255859 8.75708008 C-45.35307378 9.02539457 -48.48840665 9.7142846 -52 11 Z " fill="#7D65F6" transform="translate(211,163)"/>
</svg>
